<svg xmlns="http://www.w3.org/2000/svg" viewBox="0 0 63.57 63.57"><defs><style>.cls-1{fill:#53516b;}.cls-2{fill:#fff;}</style></defs><title>Social Media Buttons (2)</title><g id="Layer_2" data-name="Layer 2"><g id="Header"><g id="Social_Media_Buttons" data-name="Social Media Buttons"><circle class="cls-1" cx="31.79" cy="31.79" r="31.79"/><path class="cls-2" d="M34.07,43.07H29.55c-.24,0-.49-.06-.74-.06a23.12,23.12,0,0,1-2.5-.08,6.45,6.45,0,0,1-5.72-6.53c0-.78-.06-1.56-.09-2.34V29.55c0-.33.05-.66.07-1a20.53,20.53,0,0,1,.17-2.84A6.46,6.46,0,0,1,27,20.59l2.54-.09H34l2.6.08a6.19,6.19,0,0,1,3.47,1.11A6.39,6.39,0,0,1,43,27c0,.83.06,1.66.09,2.49V34c0,.86-.06,1.73-.08,2.59a6.27,6.27,0,0,1-1.13,3.52A6.41,6.41,0,0,1,36.57,43C35.73,43,34.9,43,34.07,43.07Zm-2.29-2.2c1.71,0,3.42.05,5.12,0a4.26,4.26,0,0,0,4-4c.05-3.39,0-6.79,0-10.18a4.2,4.2,0,0,0-4-3.95c-3.39-.06-6.78-.06-10.17,0a4.2,4.2,0,0,0-4,4q-.09,5.05,0,10.13a4.23,4.23,0,0,0,4,4C28.41,40.93,30.1,40.88,31.78,40.87Z"/><path class="cls-2" d="M37.57,31.79A5.79,5.79,0,1,1,31.77,26,5.77,5.77,0,0,1,37.57,31.79Zm-5.85,3.69a3.7,3.7,0,1,0-3.63-3.76A3.68,3.68,0,0,0,31.72,35.48Z"/><path class="cls-2" d="M37.61,24.58a1.28,1.28,0,0,1,1.29,1.31,1.29,1.29,0,1,1-2.58,0A1.26,1.26,0,0,1,37.61,24.58Z"/></g></g></g></svg>