<svg xmlns="http://www.w3.org/2000/svg" viewBox="0 0 63.57 63.57"><defs><style>.cls-1{fill:#53516b;}.cls-2{fill:#fff;}</style></defs><title>Social Media Buttons (3)</title><g id="Layer_2" data-name="Layer 2"><g id="Header"><g id="Social_Media_Buttons" data-name="Social Media Buttons"><circle class="cls-1" cx="31.79" cy="31.79" r="31.79"/><path class="cls-2" d="M32.47,20.49c2.29.07,4.58.13,6.88.22,1.36.05,2.72.15,4.08.23A3.48,3.48,0,0,1,46,22.36a6.15,6.15,0,0,1,1.27,3.37,56.74,56.74,0,0,1,.26,7c-.06,1.67-.12,3.35-.32,5a6,6,0,0,1-2.33,4.08,3.32,3.32,0,0,1-1.86.74c-1.81.09-3.62.22-5.43.28q-5.38.2-10.79,0c-2.18-.07-4.36-.18-6.54-.31a3.23,3.23,0,0,1-2.11-1.07,6.5,6.5,0,0,1-1.89-4A53.88,53.88,0,0,1,16,30.59c.06-1.64.12-3.29.32-4.91a5.86,5.86,0,0,1,2.47-4.2,3.19,3.19,0,0,1,1.74-.57c2.08-.11,4.15-.25,6.23-.32C28.67,20.52,30.57,20.52,32.47,20.49Zm-3.81,4.94V38l9.44-6.3Z"/></g></g></g></svg>